<?xml version="1.0" standalone="no"?>
<!DOCTYPE svg PUBLIC "-//W3C//DTD SVG 20010904//EN"
 "http://www.w3.org/TR/2001/REC-SVG-20010904/DTD/svg10.dtd">
<svg version="1.0" xmlns="http://www.w3.org/2000/svg"
 width="512.000000pt" height="512.000000pt" viewBox="0 0 512.000000 512.000000"
 preserveAspectRatio="xMidYMid meet">
<metadata>
Created by potrace 1.16, written by Peter Selinger 2001-2019
</metadata>
<g transform="translate(0.000000,512.000000) scale(0.100000,-0.100000)"
fill="#000000" stroke="none">
<path d="M0 2560 l0 -2560 2560 0 2560 0 0 2560 0 2560 -2560 0 -2560 0 0
-2560z m1156 2472 c35 -23 35 -49 4 -210 -39 -205 -38 -198 -56 -216 -25 -25
-81 -20 -100 9 -14 21 -14 33 -4 95 7 39 10 73 8 76 -10 9 -228 -226 -300
-322 -407 -547 -551 -1233 -402 -1902 47 -210 134 -435 244 -628 33 -59 60
-108 60 -110 0 -2 -33 -4 -73 -4 l-74 0 -71 138 c-189 366 -274 715 -274 1127
0 406 81 746 263 1105 115 229 251 417 435 607 51 53 94 97 94 98 0 0 -38 -1
-84 -3 -75 -3 -87 -1 -105 17 -12 12 -21 32 -21 46 0 26 30 64 53 66 151 15
388 22 403 11z m2951 -54 c243 -195 471 -478 623 -771 187 -361 273 -715 272
-1122 -1 -417 -85 -761 -274 -1127 l-71 -138 -74 0 c-40 0 -73 2 -73 5 0 3 27
52 60 108 281 482 371 1097 244 1665 -71 319 -245 678 -448 927 -77 95 -260
278 -345 345 -79 63 -99 96 -80 132 31 58 70 52 166 -24z m-1262 -14 c26 -10
42 -53 65 -179 12 -66 26 -126 30 -134 4 -7 108 -55 230 -106 l224 -93 117 79
c173 116 150 123 386 -113 235 -235 228 -210 114 -382 l-80 -119 19 -46 c61
-156 163 -397 170 -405 5 -5 70 -21 145 -36 104 -21 142 -33 160 -50 l25 -23
0 -273 c0 -340 14 -313 -180 -351 -74 -14 -140 -31 -147 -37 -10 -10 -193
-437 -193 -452 0 -3 36 -58 80 -122 100 -147 101 -158 24 -241 l-56 -61 -582
1 -581 0 75 20 c467 125 825 505 925 984 25 118 30 319 11 441 -54 358 -258
677 -561 881 -129 87 -290 153 -457 189 -117 26 -380 25 -498 0 -253 -55 -476
-175 -652 -353 -109 -109 -172 -195 -236 -321 -186 -363 -188 -793 -7 -1155
167 -331 466 -575 817 -667 l73 -19 -581 0 -582 -1 -56 61 c-77 83 -76 93 24
240 44 65 80 121 80 124 0 14 -183 441 -193 451 -7 6 -73 23 -147 37 -194 38
-180 11 -180 351 l0 273 25 23 c18 17 56 29 160 50 75 15 140 31 145 36 4 5
49 108 99 229 l91 220 -80 120 c-61 92 -80 129 -80 155 0 32 17 52 192 227
237 237 213 230 387 114 l118 -79 223 93 c122 51 226 99 230 106 4 8 18 68 30
134 22 121 39 169 62 178 19 8 553 8 573 1z m-244 -875 c50 -66 87 -125 83
-129 -5 -5 -65 -52 -133 -104 -93 -72 -138 -100 -180 -112 -225 -65 -417 -260
-477 -486 l-18 -66 -73 93 c-76 97 -104 115 -146 94 -18 -10 -134 -96 -205
-152 -37 -29 28 214 93 348 55 116 139 229 244 328 163 155 353 250 583 292
138 25 125 31 229 -106z m278 75 c347 -101 636 -378 751 -721 25 -75 60 -249
60 -299 0 -11 -218 -181 -239 -186 -5 -2 -55 56 -110 127 -76 98 -105 144
-117 185 -65 224 -252 408 -482 475 l-73 21 92 69 c91 69 114 99 102 132 -5
16 -53 83 -142 202 l-26 34 50 -7 c27 -5 87 -19 134 -32z m-1095 -1093 c72
-93 100 -138 112 -180 51 -178 186 -341 351 -423 50 -26 116 -52 146 -59 l55
-12 -89 -69 c-50 -38 -95 -80 -101 -94 -15 -32 -5 -53 88 -175 l75 -99 -43 6
c-267 41 -549 211 -716 433 -126 167 -201 358 -226 572 l-7 56 122 92 c68 50
126 88 130 84 4 -5 50 -64 103 -132z m1539 -202 c70 -91 99 -109 140 -88 18
10 57 39 206 153 33 25 -25 -197 -84 -322 -178 -376 -503 -606 -926 -656 l-45
-5 -89 118 c-48 66 -88 121 -89 124 0 3 58 50 129 106 98 76 144 105 185 117
177 51 340 187 422 351 26 50 52 117 59 148 7 30 15 52 19 48 4 -4 36 -47 73
-94z"/>
</g>
</svg>
